<?xml version="1.0" encoding="UTF-8" standalone="no"?>
<svg
   xmlns:dc="http://purl.org/dc/elements/1.1/"
   xmlns:cc="http://creativecommons.org/ns#"
   xmlns:rdf="http://www.w3.org/1999/02/22-rdf-syntax-ns#"
   xmlns:svg="http://www.w3.org/2000/svg"
   xmlns="http://www.w3.org/2000/svg"
   viewBox="0 0 1600 1066.6667"
   height="1066.6667"
   width="1600"
   xml:space="preserve"
   id="svg2"
   version="1.1"><metadata
     id="metadata8"><rdf:RDF><cc:Work
         rdf:about=""><dc:format>image/svg+xml</dc:format><dc:type
           rdf:resource="http://purl.org/dc/dcmitype/StillImage" /></cc:Work></rdf:RDF></metadata><defs
     id="defs6"><clipPath
       id="clipPath20"
       clipPathUnits="userSpaceOnUse"><path
         id="path18"
         d="M 0,800 H 1200 V 0 H 0 Z" /></clipPath></defs><g
     transform="matrix(1.3333333,0,0,-1.3333333,0,1066.6667)"
     id="g10"><path
       id="path12"
       style="fill:#3f7bc7;fill-opacity:1;fill-rule:nonzero;stroke:none"
       d="M 461.269,506.502 H 510.49 V 293.013 h -49.221 z" /><g
       id="g14"><g
         clip-path="url(#clipPath20)"
         id="g16"><g
           transform="translate(577.0571,382.2637)"
           id="g22"><path
             id="path24"
             style="fill:#3f7bc7;fill-opacity:1;fill-rule:nonzero;stroke:none"
             d="M 0,0 V -89.25 H -49.221 V 42.401 c 0,4.151 0.097,6.917 0.296,8.302 0.195,1.381 0.788,4.448 1.779,9.193 l 1.483,4.744 1.186,4.447 c 6.324,19.172 18.481,33.011 36.471,41.512 19.371,9.09 49.022,13.64 88.954,13.64 h 68.79 V 85.692 H 77.686 69.977 60.192 C 44.375,85.692 32.218,83.468 23.721,79.021 15.219,74.573 8.599,67.605 3.854,58.116 2.469,55.346 1.482,52.876 0.89,50.703 0.296,48.526 0,46.747 0,45.366 V 35.878 H 149.738 V 0 Z" /></g><g
           transform="translate(848.6572,467.9556)"
           id="g26"><path
             id="path28"
             style="fill:#3f7bc7;fill-opacity:1;fill-rule:nonzero;stroke:none"
             d="M 0,0 V -174.942 H -49.221 V 0 h -66.797 V 38.547 H 76.797 V 0 Z" /></g><g
           transform="translate(289.3699,398.97)"
           id="g30"><path
             id="path32"
             style="fill:#3f7bc7;fill-opacity:1;fill-rule:nonzero;stroke:none"
             d="M 0,0 C 11.617,6.717 23.104,13.359 34.768,20.104 V 34.85 c -1.431,-0.001 -2.825,-0.394 -4.229,-1.176 -2.516,-1.4 -5.042,-2.793 -7.635,-4.039 -1.818,-0.873 -3.781,-1.044 -5.573,0.127 -1.574,1.028 -2.178,2.664 -1.685,4.4 0.352,1.236 1.1,2.454 1.952,3.436 3.73,4.297 7.64,8.439 11.341,12.76 1.832,2.139 3.779,3.745 5.829,4.879 v 52.295 H -14.453 V 7.802 C -7.508,9.089 -2.846,6.321 0,0" /></g><g
           transform="translate(382.5503,331.5605)"
           id="g34"><path
             id="path36"
             style="fill:#3f7bc7;fill-opacity:1;fill-rule:nonzero;stroke:none"
             d="m 0,0 c -19.769,0 -34.446,3.558 -44.032,10.674 -9.59,7.116 -14.381,17.198 -14.381,30.244 V 68.864 C -68.689,58.015 -78.78,47.362 -88.865,36.715 c 0.145,-0.196 0.291,-0.393 0.437,-0.59 4.646,1.926 9.348,2.758 14.334,1.531 4.961,-1.22 9.145,-3.715 12.077,-7.767 6.18,-8.541 5.988,-17.408 0.222,-26.597 3.639,0.772 6.897,0.678 9.479,-1.877 2.564,-2.538 3.195,-5.69 2.203,-9.64 4.223,3.962 8.818,6.105 13.992,6.718 5.29,0.627 10.294,-0.588 14.783,-3.49 8.249,-5.332 11.461,-13.092 10.659,-23.229 3.119,3.417 6.466,5.518 10.515,6.637 2.81,0.776 5.7,0.763 8.449,0.13 0.089,-0.018 0.175,-0.042 0.263,-0.061 0.201,-0.05 0.4,-0.102 0.599,-0.158 7.773,-1.988 13.349,-8.787 14.384,-16.869 h 44.667 l 0,38.547 z" /></g><g
           transform="translate(378.1609,469.3729)"
           id="g38"><path
             id="path40"
             style="fill:#393536;fill-opacity:1;fill-rule:nonzero;stroke:none"
             d="M 0,0 C 5.01,-0.022 9.168,-4.215 9.149,-9.228 9.131,-14.2 4.865,-18.4 -0.112,-18.348 -5.234,-18.294 -9.263,-14.2 -9.219,-9.093 -9.175,-3.997 -5.1,0.022 0,0 m -49.34,-36.872 c -2.559,-3.661 -2.198,-6.935 1.943,-9.596 -2.221,-1.284 -4.421,-2.556 -6.626,-3.831 v -18.65 c 4.769,5.035 9.574,10.108 14.445,15.25 1.303,-1.6 2.336,-3.075 3.577,-4.347 2.447,-2.508 3.826,-2.644 6.938,-0.962 0.519,0.281 1.029,0.581 1.605,0.907 2.453,-3.613 2.951,-7.129 0.676,-10.985 -1.585,-2.687 -2.988,-5.521 -4.111,-8.428 -0.882,-2.285 -0.1,-4.156 1.652,-5.319 1.795,-1.191 3.6,-1.041 5.205,0.337 4.208,3.613 8.453,7.191 12.519,10.96 2.284,2.117 4.54,4.382 6.28,6.941 2.945,4.328 3.034,9.209 1.513,14.117 -0.69,2.23 -1.559,4.405 -2.423,6.819 2.249,2.009 4.613,4.155 7.012,6.262 10.431,9.159 18.473,20.06 23.789,32.897 2.076,5.012 4.119,10.079 4.215,15.64 0.054,3.193 -0.233,6.39 -3.645,7.808 -1.664,0.692 -3.744,1.119 -5.469,0.79 -4.384,-0.836 -8.797,-1.829 -12.981,-3.357 -16.375,-5.978 -29.15,-16.861 -40.009,-30.187 -1.323,-1.624 -2.297,-1.855 -4.297,-1.07 -6.046,2.374 -11.57,2.433 -16.491,-0.29 v -20.387 c 1.499,10e-4 3.04,-0.428 4.683,-1.319" /></g></g></g></g></svg>